<?xml version="1.0" encoding="iso-8859-1"?><!DOCTYPE svg PUBLIC "-//W3C//DTD SVG 1.1//EN" "http://www.w3.org/Graphics/SVG/1.1/DTD/svg11.dtd"><svg viewBox="0 0 329 329" xmlns="http://www.w3.org/2000/svg" xmlns:xlink="http://www.w3.org/1999/xlink"><style>:root>svg{display:none}:root>svg:target{display:block}</style><svg viewBox="0 0 284.935 284.936" id="angle-right" xmlns="http://www.w3.org/2000/svg"><path d="M222.701 135.9L89.652 2.857C87.748.955 85.557 0 83.084 0c-2.474 0-4.664.955-6.567 2.857L62.244 17.133c-1.906 1.903-2.855 4.089-2.855 6.567 0 2.478.949 4.664 2.855 6.567l112.204 112.204L62.244 254.677c-1.906 1.903-2.855 4.093-2.855 6.564 0 2.477.949 4.667 2.855 6.57l14.274 14.271c1.903 1.905 4.093 2.854 6.567 2.854 2.473 0 4.663-.951 6.567-2.854l133.042-133.044c1.902-1.902 2.854-4.093 2.854-6.567s-.945-4.664-2.847-6.571z"/></svg><svg viewBox="0 0 20 22" id="arrow-left" xmlns="http://www.w3.org/2000/svg"><style>.bshp0{fill:#fff}</style><path id="barrow icon" class="bshp0" d="M10.58 21.08l1.39-1.51-7.95-7.56h15.96v-1.98H4.02l7.95-7.49L10.41 1 0 11.01l10.58 10.07"/></svg><svg viewBox="0 0 20 20" id="arrow-right" xmlns="http://www.w3.org/2000/svg"><style>.cshp0{fill:#fff}</style><path id="carrow icon" class="cshp0" d="M9.42 20.08l-1.39-1.51 7.95-7.56H.02V9.03h15.96L8.03 1.54 9.59 0 20 10.01 9.42 20.08"/></svg><svg viewBox="0 0 329.269 329" id="close" xmlns="http://www.w3.org/2000/svg"><path d="M194.8 164.77L323.013 36.555c8.343-8.34 8.343-21.825 0-30.164-8.34-8.34-21.825-8.34-30.164 0L164.633 134.605 36.422 6.391c-8.344-8.34-21.824-8.34-30.164 0-8.344 8.34-8.344 21.824 0 30.164l128.21 128.215L6.259 292.984c-8.344 8.34-8.344 21.825 0 30.164a21.266 21.266 0 0015.082 6.25c5.46 0 10.922-2.09 15.082-6.25l128.21-128.214 128.216 128.214a21.273 21.273 0 0015.082 6.25c5.46 0 10.922-2.09 15.082-6.25 8.343-8.34 8.343-21.824 0-30.164zm0 0"/></svg><svg viewBox="0 0 12 21" id="down-arrow" xmlns="http://www.w3.org/2000/svg"><style>.eshp0{fill:#151515}</style><g id="eMain"><g id="eTab Product"><g id="eButton"><path id="edown" class="eshp0" d="M.31 15.72l4.98 5c.39.4 1.02.4 1.41 0l4.98-5c.29-.28.37-.71.22-1.09-.16-.37-.52-.62-.92-.62H6.99v-13a.994.994 0 10-1.99 0v13H1.01c-.4 0-.77.25-.92.62-.15.38-.07.81.22 1.09zm8.26.3L5.99 18.6l-2.57-2.58h5.15z"/></g></g></g></svg><svg viewBox="0 0 12 2" id="minus" xmlns="http://www.w3.org/2000/svg"><style>.fshp0{fill:#858585}</style><g id="fMain"><g id="finfo"><g id="fQuantity"><path id="fRectangle 43 copy 2" class="fshp0" d="M0 0h12v2H0V0z"/></g></g></g></svg><svg viewBox="0 0 12 12" id="plus" xmlns="http://www.w3.org/2000/svg"><style>.gshp0{fill:#858585}</style><g id="gMain"><g id="ginfo"><g id="gQuantity"><path id="gRectangle 43 copy" class="gshp0" d="M12 7H7v5H5V7H0V5h5V0h2v5h5v2z"/></g></g></g></svg><svg viewBox="0 0 117 22" id="sprite" xmlns="http://www.w3.org/2000/svg"><style/><path d="M1 1h17L8 18h9v4H0L10 6H1V1zm32 21c-6.08 0-11-4.93-11-11 0-.67.07-1.32.18-1.95l5.73 5.09C28.97 15.85 30.84 17 33 17c3.31 0 6-2.69 6-6s-2.69-6-6-6c-2.24 0-4.18 1.25-5.21 3.07l-3.82-3.34C25.96 1.87 29.26 0 33 0c6.08 0 11 4.92 11 11 0 6.07-4.92 11-11 11zm17 0V12l5 3v7h-5zm0-16l19 16V0h-5v11L50 0v6zm41-6H76v22h15v-4H81v-5h9V9h-9V4h10V0zm26 22h-6l-5-6.88-5 6.88h-6l8-11-8-11h6l5 6.87L111 0h6l-8 11 8 11z"/></svg><svg viewBox="0 0 117 22" id="sprites" xmlns="http://www.w3.org/2000/svg"><style/><path d="M1 1h17L8 18h9v4H0L10 6H1V1zm32 21c-6.08 0-11-4.93-11-11 0-.67.07-1.32.18-1.95l5.73 5.09C28.97 15.85 30.84 17 33 17c3.31 0 6-2.69 6-6s-2.69-6-6-6c-2.24 0-4.18 1.25-5.21 3.07l-3.82-3.34C25.96 1.87 29.26 0 33 0c6.08 0 11 4.92 11 11 0 6.07-4.92 11-11 11zm17 0V12l5 3v7h-5zm0-16l19 16V0h-5v11L50 0v6zm41-6H76v22h15v-4H81v-5h9V9h-9V4h10V0zm26 22h-6l-5-6.88-5 6.88h-6l8-11-8-11h6l5 6.87L111 0h6l-8 11 8 11z"/></svg><svg viewBox="0 0 12 21" id="to-top" xmlns="http://www.w3.org/2000/svg"><style>.jshp0{fill:#375973}</style><g id="jup top"><path id="jShape 1" class="jshp0" d="M11.69 5.28l-4.98-5a.978.978 0 00-1.41 0l-4.98 5c-.29.28-.37.71-.22 1.09.16.37.52.61.92.61h3.99v13.01a.994.994 0 101.99 0V6.98h3.99c.4 0 .77-.24.92-.61.15-.38.07-.81-.22-1.09zm-8.26-.3L6.01 2.4l2.57 2.58H3.43z"/></g></svg></svg>